<svg width="70" height="72" viewBox="0 0 70 72" fill="none" xmlns="http://www.w3.org/2000/svg">
<g filter="url(#filter0_d_91_2)">
<path d="M32.0831 6.69446C46.105 6.69446 57.4717 18.0613 57.4718 32.0831C57.4718 46.105 46.105 57.4718 32.0831 57.4718C18.0613 57.4717 6.69446 46.105 6.69446 32.0831C6.69458 18.0614 18.0614 6.69458 32.0831 6.69446ZM32.0831 10.8058C20.3319 10.8059 10.8059 20.3319 10.8058 32.0831C10.8058 43.8345 20.3318 53.3613 32.0831 53.3615C43.8345 53.3615 53.3615 43.8345 53.3615 32.0831C53.3613 20.3318 43.8345 10.8058 32.0831 10.8058Z" fill="#FFC108" stroke="#FFC108" stroke-linecap="round" stroke-linejoin="round"/>
<path d="M47.1096 47.1096C47.9124 46.3069 49.2131 46.3069 50.0159 47.1096L62.7034 59.7971C63.5059 60.5999 63.506 61.9007 62.7034 62.7034C61.9007 63.506 60.5999 63.5059 59.7971 62.7034L47.1096 50.0159C46.3069 49.2131 46.3069 47.9124 47.1096 47.1096Z" fill="#FFC108" stroke="#FFC108" stroke-linecap="round" stroke-linejoin="round"/>
<mask id="path-3-inside-1_91_2" fill="white">
<path d="M32.6667 31C30.9556 31 29.4907 30.3146 28.2722 28.9438C27.0537 27.5729 26.4445 25.925 26.4445 24C26.4445 22.075 27.0537 20.4271 28.2722 19.0562C29.4907 17.6854 30.9556 17 32.6667 17C34.3778 17 35.8426 17.6854 37.0611 19.0562C38.2796 20.4271 38.8889 22.075 38.8889 24C38.8889 25.925 38.2796 27.5729 37.0611 28.9438C35.8426 30.3146 34.3778 31 32.6667 31ZM20.2222 45V40.1C20.2222 39.1083 20.4491 38.1969 20.9028 37.3656C21.3565 36.5344 21.9593 35.9 22.7111 35.4625C24.3185 34.5583 25.9519 33.8802 27.6111 33.4281C29.2704 32.976 30.9556 32.75 32.6667 32.75C34.3778 32.75 36.063 32.976 37.7222 33.4281C39.3815 33.8802 41.0148 34.5583 42.6222 35.4625C43.3741 35.9 43.9769 36.5344 44.4306 37.3656C44.8843 38.1969 45.1111 39.1083 45.1111 40.1V45H20.2222ZM23.3333 41.5H42V40.1C42 39.7792 41.9287 39.4875 41.7861 39.225C41.6435 38.9625 41.4556 38.7583 41.2222 38.6125C39.8222 37.825 38.4093 37.2344 36.9833 36.8406C35.5574 36.4469 34.1185 36.25 32.6667 36.25C31.2148 36.25 29.7759 36.4469 28.35 36.8406C26.9241 37.2344 25.5111 37.825 24.1111 38.6125C23.8778 38.7583 23.6898 38.9625 23.5472 39.225C23.4046 39.4875 23.3333 39.7792 23.3333 40.1V41.5ZM32.6667 27.5C33.5222 27.5 34.2546 27.1573 34.8639 26.4719C35.4732 25.7865 35.7778 24.9625 35.7778 24C35.7778 23.0375 35.4732 22.2135 34.8639 21.5281C34.2546 20.8427 33.5222 20.5 32.6667 20.5C31.8111 20.5 31.0787 20.8427 30.4695 21.5281C29.8602 22.2135 29.5556 23.0375 29.5556 24C29.5556 24.9625 29.8602 25.7865 30.4695 26.4719C31.0787 27.1573 31.8111 27.5 32.6667 27.5Z"/>
</mask>
<path d="M32.6667 31C30.9556 31 29.4907 30.3146 28.2722 28.9438C27.0537 27.5729 26.4445 25.925 26.4445 24C26.4445 22.075 27.0537 20.4271 28.2722 19.0562C29.4907 17.6854 30.9556 17 32.6667 17C34.3778 17 35.8426 17.6854 37.0611 19.0562C38.2796 20.4271 38.8889 22.075 38.8889 24C38.8889 25.925 38.2796 27.5729 37.0611 28.9438C35.8426 30.3146 34.3778 31 32.6667 31ZM20.2222 45V40.1C20.2222 39.1083 20.4491 38.1969 20.9028 37.3656C21.3565 36.5344 21.9593 35.9 22.7111 35.4625C24.3185 34.5583 25.9519 33.8802 27.6111 33.4281C29.2704 32.976 30.9556 32.75 32.6667 32.75C34.3778 32.75 36.063 32.976 37.7222 33.4281C39.3815 33.8802 41.0148 34.5583 42.6222 35.4625C43.3741 35.9 43.9769 36.5344 44.4306 37.3656C44.8843 38.1969 45.1111 39.1083 45.1111 40.1V45H20.2222ZM23.3333 41.5H42V40.1C42 39.7792 41.9287 39.4875 41.7861 39.225C41.6435 38.9625 41.4556 38.7583 41.2222 38.6125C39.8222 37.825 38.4093 37.2344 36.9833 36.8406C35.5574 36.4469 34.1185 36.25 32.6667 36.25C31.2148 36.25 29.7759 36.4469 28.35 36.8406C26.9241 37.2344 25.5111 37.825 24.1111 38.6125C23.8778 38.7583 23.6898 38.9625 23.5472 39.225C23.4046 39.4875 23.3333 39.7792 23.3333 40.1V41.5ZM32.6667 27.5C33.5222 27.5 34.2546 27.1573 34.8639 26.4719C35.4732 25.7865 35.7778 24.9625 35.7778 24C35.7778 23.0375 35.4732 22.2135 34.8639 21.5281C34.2546 20.8427 33.5222 20.5 32.6667 20.5C31.8111 20.5 31.0787 20.8427 30.4695 21.5281C29.8602 22.2135 29.5556 23.0375 29.5556 24C29.5556 24.9625 29.8602 25.7865 30.4695 26.4719C31.0787 27.1573 31.8111 27.5 32.6667 27.5Z" fill="#FFC108"/>
<path d="M20.2222 45H15.2222V50H20.2222V45ZM22.7111 35.4625L20.2598 31.1046L20.228 31.1225L20.1964 31.1409L22.7111 35.4625ZM42.6222 35.4625L45.137 31.1409L45.1054 31.1225L45.0735 31.1046L42.6222 35.4625ZM45.1111 45V50H50.1111V45H45.1111ZM23.3333 41.5H18.3333V46.5H23.3333V41.5ZM42 41.5V46.5H47V41.5H42ZM41.2222 38.6125L43.8722 34.3725L43.7742 34.3113L43.6735 34.2546L41.2222 38.6125ZM24.1111 38.6125L21.6598 34.2546L21.5591 34.3113L21.4611 34.3725L24.1111 38.6125ZM32.6667 31V26C32.5 26 32.4347 25.9716 32.4038 25.9572C32.3645 25.9388 32.2273 25.8672 32.0093 25.6219L28.2722 28.9438L24.5352 32.2656C26.6256 34.6173 29.4155 36 32.6667 36V31ZM28.2722 28.9438L32.0093 25.6219C31.6473 25.2148 31.4445 24.7668 31.4445 24H26.4445H21.4445C21.4445 27.0832 22.4601 29.9311 24.5352 32.2656L28.2722 28.9438ZM26.4445 24H31.4445C31.4445 23.2332 31.6473 22.7852 32.0093 22.3781L28.2722 19.0562L24.5352 15.7344C22.4601 18.0689 21.4445 20.9168 21.4445 24H26.4445ZM28.2722 19.0562L32.0093 22.3781C32.2273 22.1328 32.3645 22.0612 32.4038 22.0428C32.4347 22.0284 32.5 22 32.6667 22V17V12C29.4155 12 26.6256 13.3827 24.5352 15.7344L28.2722 19.0562ZM32.6667 17V22C32.8333 22 32.8987 22.0284 32.9295 22.0428C32.9688 22.0612 33.1061 22.1328 33.3241 22.3781L37.0611 19.0562L40.7982 15.7344C38.7078 13.3827 35.9178 12 32.6667 12V17ZM37.0611 19.0562L33.3241 22.3781C33.686 22.7852 33.8889 23.2332 33.8889 24H38.8889H43.8889C43.8889 20.9168 42.8733 18.0689 40.7982 15.7344L37.0611 19.0562ZM38.8889 24H33.8889C33.8889 24.7668 33.686 25.2148 33.3241 25.6219L37.0611 28.9438L40.7982 32.2656C42.8733 29.9311 43.8889 27.0832 43.8889 24H38.8889ZM37.0611 28.9438L33.3241 25.6219C33.1061 25.8672 32.9688 25.9388 32.9295 25.9572C32.8987 25.9716 32.8333 26 32.6667 26V31V36C35.9178 36 38.7078 34.6173 40.7982 32.2656L37.0611 28.9438ZM20.2222 45H25.2222V40.1H20.2222H15.2222V45H20.2222ZM20.2222 40.1H25.2222C25.2222 39.9045 25.2581 39.8225 25.2916 39.7611L20.9028 37.3656L16.514 34.9702C15.6401 36.5712 15.2222 38.3122 15.2222 40.1H20.2222ZM20.9028 37.3656L25.2916 39.7611C25.31 39.7274 25.3225 39.7092 25.3271 39.7029C25.3315 39.6968 25.3294 39.7004 25.3198 39.7105C25.3101 39.7208 25.2959 39.7342 25.2777 39.7485C25.2595 39.7629 25.2416 39.7749 25.2258 39.7841L22.7111 35.4625L20.1964 31.1409C18.5864 32.0777 17.3648 33.4114 16.514 34.9702L20.9028 37.3656ZM22.7111 35.4625L25.1624 39.8204C26.4372 39.1033 27.6905 38.5888 28.9255 38.2523L27.6111 33.4281L26.2967 28.604C24.2132 29.1717 22.1998 30.0134 20.2598 31.1046L22.7111 35.4625ZM27.6111 33.4281L28.9255 38.2523C30.1586 37.9163 31.4018 37.75 32.6667 37.75V32.75V27.75C30.5093 27.75 28.3822 28.0358 26.2967 28.604L27.6111 33.4281ZM32.6667 32.75V37.75C33.9315 37.75 35.1748 37.9163 36.4078 38.2523L37.7222 33.4281L39.0366 28.604C36.9512 28.0358 34.824 27.75 32.6667 27.75V32.75ZM37.7222 33.4281L36.4078 38.2523C37.6428 38.5888 38.8961 39.1033 40.1709 39.8204L42.6222 35.4625L45.0735 31.1046C43.1335 30.0134 41.1201 29.1717 39.0366 28.604L37.7222 33.4281ZM42.6222 35.4625L40.1075 39.7841C40.0917 39.7749 40.0738 39.7629 40.0556 39.7485C40.0374 39.7342 40.0233 39.7207 40.0136 39.7105C40.004 39.7004 40.0019 39.6968 40.0063 39.7029C40.0108 39.7092 40.0233 39.7274 40.0417 39.7611L44.4306 37.3656L48.8194 34.9702C47.9686 33.4114 46.7469 32.0777 45.137 31.1409L42.6222 35.4625ZM44.4306 37.3656L40.0417 39.7611C40.0753 39.8225 40.1111 39.9045 40.1111 40.1H45.1111H50.1111C50.1111 38.3122 49.6933 36.5712 48.8194 34.9702L44.4306 37.3656ZM45.1111 40.1H40.1111V45H45.1111H50.1111V40.1H45.1111ZM45.1111 45V40H20.2222V45V50H45.1111V45ZM23.3333 41.5V46.5H42V41.5V36.5H23.3333V41.5ZM42 41.5H47V40.1H42H37V41.5H42ZM42 40.1H47C47 39.009 46.7495 37.8872 46.1797 36.8383L41.7861 39.225L37.3925 41.6117C37.1079 41.0878 37 40.5494 37 40.1H42ZM41.7861 39.225L46.1797 36.8383C45.6618 35.8848 44.8987 35.0141 43.8722 34.3725L41.2222 38.6125L38.5722 42.8525C38.0124 42.5026 37.6253 42.0402 37.3925 41.6117L41.7861 39.225ZM41.2222 38.6125L43.6735 34.2546C41.9502 33.2852 40.1628 32.5315 38.3142 32.021L36.9833 36.8406L35.6525 41.6602C36.6557 41.9373 37.6943 42.3648 38.7709 42.9704L41.2222 38.6125ZM36.9833 36.8406L38.3142 32.021C36.4631 31.5098 34.5767 31.25 32.6667 31.25V36.25V41.25C33.6603 41.25 34.6518 41.3839 35.6525 41.6602L36.9833 36.8406ZM32.6667 36.25V31.25C30.7566 31.25 28.8703 31.5098 27.0191 32.021L28.35 36.8406L29.6809 41.6602C30.6816 41.3839 31.673 41.25 32.6667 41.25V36.25ZM28.35 36.8406L27.0191 32.021C25.1705 32.5315 23.3832 33.2852 21.6598 34.2546L24.1111 38.6125L26.5624 42.9704C27.6391 42.3648 28.6776 41.9373 29.6809 41.6602L28.35 36.8406ZM24.1111 38.6125L21.4611 34.3725C20.4346 35.0141 19.6716 35.8848 19.1536 36.8383L23.5472 39.225L27.9408 41.6117C27.7081 42.0402 27.321 42.5026 26.7611 42.8525L24.1111 38.6125ZM23.5472 39.225L19.1536 36.8383C18.5839 37.8872 18.3333 39.009 18.3333 40.1H23.3333H28.3333C28.3333 40.5494 28.2254 41.0878 27.9408 41.6117L23.5472 39.225ZM23.3333 40.1H18.3333V41.5H23.3333H28.3333V40.1H23.3333ZM32.6667 27.5V32.5C35.0623 32.5 37.1198 31.46 38.6009 29.7937L34.8639 26.4719L31.1268 23.1501C31.2135 23.0526 31.4117 22.8672 31.7386 22.7142C32.0739 22.5573 32.4055 22.5 32.6667 22.5V27.5ZM34.8639 26.4719L38.6009 29.7937C40.0668 28.1446 40.7778 26.1207 40.7778 24H35.7778H30.7778C30.7778 23.9461 30.7879 23.7997 30.8596 23.606C30.9326 23.4084 31.0363 23.252 31.1268 23.1501L34.8639 26.4719ZM35.7778 24H40.7778C40.7778 21.8793 40.0668 19.8554 38.6009 18.2063L34.8639 21.5281L31.1268 24.8499C31.0363 24.748 30.9326 24.5916 30.8596 24.394C30.7879 24.2003 30.7778 24.0539 30.7778 24H35.7778ZM34.8639 21.5281L38.6009 18.2063C37.1198 16.54 35.0623 15.5 32.6667 15.5V20.5V25.5C32.4055 25.5 32.0739 25.4427 31.7386 25.2858C31.4117 25.1328 31.2135 24.9474 31.1268 24.8499L34.8639 21.5281ZM32.6667 20.5V15.5C30.2711 15.5 28.2136 16.54 26.7324 18.2063L30.4695 21.5281L34.2065 24.8499C34.1199 24.9474 33.9217 25.1328 33.5948 25.2858C33.2594 25.4427 32.9278 25.5 32.6667 25.5V20.5ZM30.4695 21.5281L26.7324 18.2063C25.2666 19.8554 24.5556 21.8793 24.5556 24H29.5556H34.5556C34.5556 24.0539 34.5454 24.2003 34.4738 24.394C34.4007 24.5916 34.2971 24.748 34.2065 24.8499L30.4695 21.5281ZM29.5556 24H24.5556C24.5556 26.1207 25.2666 28.1446 26.7324 29.7937L30.4695 26.4719L34.2065 23.1501C34.2971 23.252 34.4007 23.4084 34.4738 23.606C34.5454 23.7997 34.5556 23.9461 34.5556 24H29.5556ZM30.4695 26.4719L26.7324 29.7937C28.2136 31.46 30.2711 32.5 32.6667 32.5V27.5V22.5C32.9278 22.5 33.2594 22.5573 33.5948 22.7142C33.9217 22.8672 34.1199 23.0526 34.2065 23.1501L30.4695 26.4719Z" fill="#FFC108" mask="url(#path-3-inside-1_91_2)"/>
</g>
<defs>
<filter id="filter0_d_91_2" x="-4" y="0" width="78" height="78" filterUnits="userSpaceOnUse" color-interpolation-filters="sRGB">
<feFlood flood-opacity="0" result="BackgroundImageFix"/>
<feColorMatrix in="SourceAlpha" type="matrix" values="0 0 0 0 0 0 0 0 0 0 0 0 0 0 0 0 0 0 127 0" result="hardAlpha"/>
<feOffset dy="4"/>
<feGaussianBlur stdDeviation="2"/>
<feComposite in2="hardAlpha" operator="out"/>
<feColorMatrix type="matrix" values="0 0 0 0 0 0 0 0 0 0 0 0 0 0 0 0 0 0 0.25 0"/>
<feBlend mode="normal" in2="BackgroundImageFix" result="effect1_dropShadow_91_2"/>
<feBlend mode="normal" in="SourceGraphic" in2="effect1_dropShadow_91_2" result="shape"/>
</filter>
</defs>
</svg>
