<svg width="347" height="89" viewBox="0 0 347 89" fill="none" xmlns="http://www.w3.org/2000/svg">
<g filter="url(#filter0_d_107_16)">
<path d="M36.4587 15.6755C52.3548 15.6757 65.2409 28.5625 65.2409 44.4587C65.2407 60.3547 52.3547 73.2407 36.4587 73.2409C20.5625 73.2409 7.67568 60.3548 7.67548 44.4587C7.67548 28.5624 20.5624 15.6755 36.4587 15.6755ZM36.4587 20.2106C23.0672 20.2106 12.2106 31.0672 12.2106 44.4587C12.2108 57.85 23.0673 68.7057 36.4587 68.7057C49.8499 68.7055 60.7055 57.8499 60.7057 44.4587C60.7057 31.0673 49.85 20.2108 36.4587 20.2106Z" fill="#FFC108" stroke="#FFC108" stroke-linecap="round" stroke-linejoin="round"/>
<path d="M53.5812 61.5812C54.4668 60.6956 55.9026 60.6956 56.7882 61.5812L71.2052 75.9991C72.0908 76.8847 72.0908 78.3196 71.2052 79.2052C70.3196 80.0908 68.8847 80.0908 67.9991 79.2052L53.5812 64.7882C52.6956 63.9026 52.6956 62.4668 53.5812 61.5812Z" fill="#FFC108" stroke="#FFC108" stroke-linecap="round" stroke-linejoin="round"/>
<mask id="path-3-inside-1_107_16" fill="white">
<path d="M37.1212 44C35.1768 44 33.5122 43.2211 32.1275 41.6633C30.7428 40.1056 30.0505 38.2329 30.0505 36.0454C30.0505 33.8579 30.7428 31.9853 32.1275 30.4275C33.5122 28.8698 35.1768 28.0909 37.1212 28.0909C39.0657 28.0909 40.7302 28.8698 42.1149 30.4275C43.4996 31.9853 44.1919 33.8579 44.1919 36.0454C44.1919 38.2329 43.4996 40.1056 42.1149 41.6633C40.7302 43.2211 39.0657 44 37.1212 44ZM22.9798 59.9091V54.3409C22.9798 53.214 23.2376 52.1782 23.7532 51.2336C24.2687 50.289 24.9537 49.5682 25.8081 49.071C27.6347 48.0435 29.4907 47.2729 31.3763 46.7592C33.2618 46.2455 35.1768 45.9886 37.1212 45.9886C39.0657 45.9886 40.9806 46.2455 42.8662 46.7592C44.7517 47.2729 46.6077 48.0435 48.4343 49.071C49.2887 49.5682 49.9737 50.289 50.4893 51.2336C51.0048 52.1782 51.2626 53.214 51.2626 54.3409V59.9091H22.9798ZM26.5152 55.9318H47.7273V54.3409C47.7273 53.9763 47.6463 53.6449 47.4842 53.3466C47.3222 53.0483 47.1086 52.8163 46.8434 52.6505C45.2525 51.7557 43.6469 51.0845 42.0265 50.637C40.4061 50.1896 38.771 49.9659 37.1212 49.9659C35.4714 49.9659 33.8363 50.1896 32.2159 50.637C30.5955 51.0845 28.9899 51.7557 27.399 52.6505C27.1338 52.8163 26.9202 53.0483 26.7582 53.3466C26.5962 53.6449 26.5152 53.9763 26.5152 54.3409V55.9318ZM37.1212 40.0227C38.0934 40.0227 38.9257 39.6333 39.6181 38.8544C40.3104 38.0755 40.6566 37.1392 40.6566 36.0454C40.6566 34.9517 40.3104 34.0154 39.6181 33.2365C38.9257 32.4576 38.0934 32.0682 37.1212 32.0682C36.149 32.0682 35.3167 32.4576 34.6244 33.2365C33.932 34.0154 33.5859 34.9517 33.5859 36.0454C33.5859 37.1392 33.932 38.0755 34.6244 38.8544C35.3167 39.6333 36.149 40.0227 37.1212 40.0227Z"/>
</mask>
<path d="M37.1212 44C35.1768 44 33.5122 43.2211 32.1275 41.6633C30.7428 40.1056 30.0505 38.2329 30.0505 36.0454C30.0505 33.8579 30.7428 31.9853 32.1275 30.4275C33.5122 28.8698 35.1768 28.0909 37.1212 28.0909C39.0657 28.0909 40.7302 28.8698 42.1149 30.4275C43.4996 31.9853 44.1919 33.8579 44.1919 36.0454C44.1919 38.2329 43.4996 40.1056 42.1149 41.6633C40.7302 43.2211 39.0657 44 37.1212 44ZM22.9798 59.9091V54.3409C22.9798 53.214 23.2376 52.1782 23.7532 51.2336C24.2687 50.289 24.9537 49.5682 25.8081 49.071C27.6347 48.0435 29.4907 47.2729 31.3763 46.7592C33.2618 46.2455 35.1768 45.9886 37.1212 45.9886C39.0657 45.9886 40.9806 46.2455 42.8662 46.7592C44.7517 47.2729 46.6077 48.0435 48.4343 49.071C49.2887 49.5682 49.9737 50.289 50.4893 51.2336C51.0048 52.1782 51.2626 53.214 51.2626 54.3409V59.9091H22.9798ZM26.5152 55.9318H47.7273V54.3409C47.7273 53.9763 47.6463 53.6449 47.4842 53.3466C47.3222 53.0483 47.1086 52.8163 46.8434 52.6505C45.2525 51.7557 43.6469 51.0845 42.0265 50.637C40.4061 50.1896 38.771 49.9659 37.1212 49.9659C35.4714 49.9659 33.8363 50.1896 32.2159 50.637C30.5955 51.0845 28.9899 51.7557 27.399 52.6505C27.1338 52.8163 26.9202 53.0483 26.7582 53.3466C26.5962 53.6449 26.5152 53.9763 26.5152 54.3409V55.9318ZM37.1212 40.0227C38.0934 40.0227 38.9257 39.6333 39.6181 38.8544C40.3104 38.0755 40.6566 37.1392 40.6566 36.0454C40.6566 34.9517 40.3104 34.0154 39.6181 33.2365C38.9257 32.4576 38.0934 32.0682 37.1212 32.0682C36.149 32.0682 35.3167 32.4576 34.6244 33.2365C33.932 34.0154 33.5859 34.9517 33.5859 36.0454C33.5859 37.1392 33.932 38.0755 34.6244 38.8544C35.3167 39.6333 36.149 40.0227 37.1212 40.0227Z" fill="#FFC108"/>
<path d="M22.9798 59.9091H17.9798V64.9091H22.9798V59.9091ZM25.8081 49.071L23.3568 44.7131L23.3249 44.731L23.2934 44.7494L25.8081 49.071ZM48.4343 49.071L50.9491 44.7494L50.9175 44.731L50.8857 44.7131L48.4343 49.071ZM51.2626 59.9091V64.9091H56.2626V59.9091H51.2626ZM26.5152 55.9318H21.5152V60.9318H26.5152V55.9318ZM47.7273 55.9318V60.9318H52.7273V55.9318H47.7273ZM46.8434 52.6505L49.4934 48.4105L49.3954 48.3493L49.2947 48.2927L46.8434 52.6505ZM27.399 52.6505L24.9477 48.2927L24.847 48.3493L24.749 48.4105L27.399 52.6505ZM37.1212 44V39C36.7168 39 36.3774 38.9184 35.8646 38.3415L32.1275 41.6633L28.3905 44.9851C30.647 47.5238 33.6367 49 37.1212 49V44ZM32.1275 41.6633L35.8646 38.3415C35.3365 37.7474 35.0505 37.0747 35.0505 36.0454H30.0505H25.0505C25.0505 39.3911 26.1492 42.4637 28.3905 44.9851L32.1275 41.6633ZM30.0505 36.0454H35.0505C35.0505 35.0161 35.3365 34.3435 35.8646 33.7493L32.1275 30.4275L28.3905 27.1057C26.1492 29.6271 25.0505 32.6997 25.0505 36.0454H30.0505ZM32.1275 30.4275L35.8646 33.7493C36.3774 33.1725 36.7168 33.0909 37.1212 33.0909V28.0909V23.0909C33.6367 23.0909 30.647 24.5671 28.3905 27.1057L32.1275 30.4275ZM37.1212 28.0909V33.0909C37.5256 33.0909 37.8651 33.1725 38.3779 33.7493L42.1149 30.4275L45.8519 27.1057C43.5954 24.5671 40.6057 23.0909 37.1212 23.0909V28.0909ZM42.1149 30.4275L38.3779 33.7493C38.9059 34.3435 39.1919 35.0161 39.1919 36.0454H44.1919H49.1919C49.1919 32.6997 48.0932 29.6271 45.8519 27.1057L42.1149 30.4275ZM44.1919 36.0454H39.1919C39.1919 37.0747 38.9059 37.7474 38.3779 38.3415L42.1149 41.6633L45.8519 44.9851C48.0932 42.4637 49.1919 39.3911 49.1919 36.0454H44.1919ZM42.1149 41.6633L38.3779 38.3415C37.8651 38.9184 37.5256 39 37.1212 39V44V49C40.6057 49 43.5954 47.5238 45.8519 44.9851L42.1149 41.6633ZM22.9798 59.9091H27.9798V54.3409H22.9798H17.9798V59.9091H22.9798ZM22.9798 54.3409H27.9798C27.9798 54.0101 28.0466 53.8039 28.142 53.6291L23.7532 51.2336L19.3643 48.8382C18.4286 50.5526 17.9798 52.4178 17.9798 54.3409H22.9798ZM23.7532 51.2336L28.142 53.6291C28.2086 53.507 28.2584 53.4495 28.2782 53.4286C28.2962 53.4097 28.3078 53.4013 28.3228 53.3926L25.8081 49.071L23.2934 44.7494C21.5809 45.7459 20.277 47.166 19.3643 48.8382L23.7532 51.2336ZM25.8081 49.071L28.2594 53.4289C29.7534 52.5885 31.2294 51.9815 32.6907 51.5834L31.3763 46.7592L30.0619 41.9351C27.7521 42.5644 25.516 43.4986 23.3568 44.7131L25.8081 49.071ZM31.3763 46.7592L32.6907 51.5834C34.15 51.1857 35.623 50.9886 37.1212 50.9886V45.9886V40.9886C34.7305 40.9886 32.3736 41.3052 30.0619 41.9351L31.3763 46.7592ZM37.1212 45.9886V50.9886C38.6194 50.9886 40.0924 51.1857 41.5518 51.5834L42.8662 46.7592L44.1806 41.9351C41.8688 41.3052 39.5119 40.9886 37.1212 40.9886V45.9886ZM42.8662 46.7592L41.5518 51.5834C43.013 51.9815 44.489 52.5885 45.983 53.4289L48.4343 49.071L50.8857 44.7131C48.7265 43.4986 46.4903 42.5644 44.1806 41.9351L42.8662 46.7592ZM48.4343 49.071L45.9196 53.3926C45.9346 53.4013 45.9463 53.4097 45.9642 53.4286C45.9841 53.4495 46.0338 53.507 46.1004 53.6291L50.4893 51.2336L54.8781 48.8382C53.9654 47.166 52.6616 45.7459 50.9491 44.7494L48.4343 49.071ZM50.4893 51.2336L46.1004 53.6291C46.1958 53.8039 46.2626 54.0101 46.2626 54.3409H51.2626H56.2626C56.2626 52.4178 55.8138 50.5526 54.8781 48.8382L50.4893 51.2336ZM51.2626 54.3409H46.2626V59.9091H51.2626H56.2626V54.3409H51.2626ZM51.2626 59.9091V54.9091H22.9798V59.9091V64.9091H51.2626V59.9091ZM26.5152 55.9318V60.9318H47.7273V55.9318V50.9318H26.5152V55.9318ZM47.7273 55.9318H52.7273V54.3409H47.7273H42.7273V55.9318H47.7273ZM47.7273 54.3409H52.7273C52.7273 53.2061 52.467 52.0446 51.8778 50.9599L47.4842 53.3466L43.0906 55.7332C42.8255 55.2451 42.7273 54.7465 42.7273 54.3409H47.7273ZM47.4842 53.3466L51.8778 50.9599C51.3404 49.9706 50.5518 49.072 49.4934 48.4105L46.8434 52.6505L44.1934 56.8905C43.6654 56.5605 43.3039 56.1259 43.0906 55.7332L47.4842 53.3466ZM46.8434 52.6505L49.2947 48.2927C47.3805 47.2159 45.4004 46.3816 43.3574 45.8174L42.0265 50.637L40.6956 55.4567C41.8933 55.7874 43.1246 56.2954 44.3921 57.0084L46.8434 52.6505ZM42.0265 50.637L43.3574 45.8174C41.3118 45.2526 39.2293 44.9659 37.1212 44.9659V49.9659V54.9659C38.3128 54.9659 39.5005 55.1266 40.6956 55.4567L42.0265 50.637ZM37.1212 49.9659V44.9659C35.0132 44.9659 32.9306 45.2526 30.885 45.8174L32.2159 50.637L33.5468 55.4567C34.7419 55.1266 35.9296 54.9659 37.1212 54.9659V49.9659ZM32.2159 50.637L30.885 45.8174C28.842 46.3816 26.862 47.2159 24.9477 48.2927L27.399 52.6505L29.8503 57.0084C31.1178 56.2954 32.3491 55.7874 33.5468 55.4567L32.2159 50.637ZM27.399 52.6505L24.749 48.4105C23.6907 49.072 22.902 49.9706 22.3646 50.9599L26.7582 53.3466L31.1518 55.7332C30.9385 56.1259 30.577 56.5605 30.049 56.8905L27.399 52.6505ZM26.7582 53.3466L22.3646 50.9599C21.7754 52.0446 21.5152 53.2061 21.5152 54.3409H26.5152H31.5152C31.5152 54.7465 31.417 55.2451 31.1518 55.7332L26.7582 53.3466ZM26.5152 54.3409H21.5152V55.9318H26.5152H31.5152V54.3409H26.5152ZM37.1212 40.0227V45.0227C39.6335 45.0227 41.7909 43.936 43.3551 42.1762L39.6181 38.8544L35.881 35.5326C35.9261 35.4818 36.0786 35.3315 36.3555 35.2019C36.6409 35.0683 36.9184 35.0227 37.1212 35.0227V40.0227ZM39.6181 38.8544L43.3551 42.1762C44.904 40.4336 45.6566 38.2974 45.6566 36.0454H40.6566H35.6566C35.6566 36.0571 35.6563 35.9717 35.7072 35.8341C35.7595 35.6928 35.832 35.5877 35.881 35.5326L39.6181 38.8544ZM40.6566 36.0454H45.6566C45.6566 33.7935 44.904 31.6572 43.3551 29.9147L39.6181 33.2365L35.881 36.5583C35.832 36.5031 35.7595 36.3981 35.7072 36.2567C35.6563 36.1192 35.6566 36.0337 35.6566 36.0454H40.6566ZM39.6181 33.2365L43.3551 29.9147C41.7909 28.1549 39.6335 27.0682 37.1212 27.0682V32.0682V37.0682C36.9184 37.0682 36.6409 37.0225 36.3555 36.889C36.0786 36.7594 35.9261 36.609 35.881 36.5583L39.6181 33.2365ZM37.1212 32.0682V27.0682C34.6089 27.0682 32.4516 28.1549 30.8873 29.9147L34.6244 33.2365L38.3614 36.5583C38.3163 36.609 38.1639 36.7594 37.8869 36.889C37.6015 37.0225 37.324 37.0682 37.1212 37.0682V32.0682ZM34.6244 33.2365L30.8873 29.9147C29.3384 31.6572 28.5859 33.7935 28.5859 36.0454H33.5859H38.5859C38.5859 36.0337 38.5861 36.1192 38.5352 36.2567C38.483 36.3981 38.4105 36.5031 38.3614 36.5583L34.6244 33.2365ZM33.5859 36.0454H28.5859C28.5859 38.2974 29.3384 40.4336 30.8873 42.1762L34.6244 38.8544L38.3614 35.5326C38.4105 35.5877 38.483 35.6928 38.5352 35.8341C38.5861 35.9717 38.5859 36.0571 38.5859 36.0454H33.5859ZM34.6244 38.8544L30.8873 42.1762C32.4515 43.936 34.6089 45.0227 37.1212 45.0227V40.0227V35.0227C37.324 35.0227 37.6015 35.0683 37.8869 35.2019C38.1639 35.3315 38.3163 35.4818 38.3614 35.5326L34.6244 38.8544Z" fill="#FFC108" mask="url(#path-3-inside-1_107_16)"/>
</g>
<path d="M91.1042 65.576C89.8242 65.576 88.8002 65.2347 88.0322 64.552C87.2642 63.8693 86.8802 62.9307 86.8802 61.736V39.336C86.8802 33.1493 88.6508 28.3067 92.1922 24.808C95.7335 21.3093 100.661 19.56 106.976 19.56C111.115 19.56 114.699 20.3493 117.728 21.928C120.757 23.5067 123.061 25.7893 124.64 28.776C126.261 31.7627 127.072 35.2827 127.072 39.336V61.736C127.072 62.9307 126.688 63.8693 125.92 64.552C125.152 65.2347 124.128 65.576 122.848 65.576C121.568 65.576 120.523 65.2347 119.712 64.552C118.944 63.8267 118.56 62.888 118.56 61.736V51.304H95.3922V61.736C95.3922 62.888 94.9868 63.8267 94.1762 64.552C93.4082 65.2347 92.3842 65.576 91.1042 65.576ZM118.56 44.712V39.144C118.56 34.8773 117.579 31.6773 115.616 29.544C113.696 27.368 110.816 26.28 106.976 26.28C99.2535 26.28 95.3922 30.568 95.3922 39.144V44.712H118.56ZM137.47 84.136C136.147 84.136 135.123 83.7947 134.398 83.112C133.673 82.4293 133.31 81.4907 133.31 80.296V36.84C133.31 35.6453 133.673 34.7067 134.398 34.024C135.123 33.3413 136.147 33 137.47 33C138.75 33 139.774 33.3413 140.542 34.024C141.31 34.7067 141.694 35.6453 141.694 36.84V38.12C143.529 36.328 145.427 35.0267 147.39 34.216C149.395 33.4053 151.657 33 154.174 33C157.502 33 160.403 33.6613 162.878 34.984C165.395 36.3067 167.315 38.2053 168.638 40.68C170.003 43.112 170.686 45.992 170.686 49.32C170.686 52.6053 170.003 55.4853 168.638 57.96C167.273 60.4347 165.331 62.3333 162.814 63.656C160.297 64.9787 157.331 65.64 153.918 65.64C151.358 65.64 149.118 65.256 147.198 64.488C145.278 63.6773 143.465 62.3973 141.758 60.648L141.694 80.296C141.694 81.4907 141.31 82.4293 140.542 83.112C139.774 83.7947 138.75 84.136 137.47 84.136ZM152.19 58.984C155.347 58.984 157.801 58.152 159.55 56.488C161.342 54.7813 162.238 52.392 162.238 49.32C162.238 46.248 161.342 43.88 159.55 42.216C157.801 40.5093 155.347 39.656 152.19 39.656C148.905 39.656 146.323 40.5307 144.446 42.28C142.611 43.9867 141.694 46.3333 141.694 49.32C141.694 52.3067 142.611 54.6747 144.446 56.424C146.323 58.1307 148.905 58.984 152.19 58.984ZM180.095 84.136C178.772 84.136 177.748 83.7947 177.023 83.112C176.298 82.4293 175.935 81.4907 175.935 80.296V36.84C175.935 35.6453 176.298 34.7067 177.023 34.024C177.748 33.3413 178.772 33 180.095 33C181.375 33 182.399 33.3413 183.167 34.024C183.935 34.7067 184.319 35.6453 184.319 36.84V38.12C186.154 36.328 188.052 35.0267 190.015 34.216C192.02 33.4053 194.282 33 196.799 33C200.127 33 203.028 33.6613 205.503 34.984C208.02 36.3067 209.94 38.2053 211.263 40.68C212.628 43.112 213.311 45.992 213.311 49.32C213.311 52.6053 212.628 55.4853 211.263 57.96C209.898 60.4347 207.956 62.3333 205.439 63.656C202.922 64.9787 199.956 65.64 196.543 65.64C193.983 65.64 191.743 65.256 189.823 64.488C187.903 63.6773 186.09 62.3973 184.383 60.648L184.319 80.296C184.319 81.4907 183.935 82.4293 183.167 83.112C182.399 83.7947 181.375 84.136 180.095 84.136ZM194.815 58.984C197.972 58.984 200.426 58.152 202.175 56.488C203.967 54.7813 204.863 52.392 204.863 49.32C204.863 46.248 203.967 43.88 202.175 42.216C200.426 40.5093 197.972 39.656 194.815 39.656C191.53 39.656 188.948 40.5307 187.071 42.28C185.236 43.9867 184.319 46.3333 184.319 49.32C184.319 52.3067 185.236 54.6747 187.071 56.424C188.948 58.1307 191.53 58.984 194.815 58.984ZM224 65.64C222.677 65.64 221.653 65.2987 220.928 64.616C220.203 63.9333 219.84 62.9947 219.84 61.8V20.264C219.84 19.0693 220.203 18.1307 220.928 17.448C221.653 16.7653 222.677 16.424 224 16.424C225.28 16.424 226.304 16.7653 227.072 17.448C227.84 18.1307 228.224 19.0693 228.224 20.264V61.8C228.224 62.9947 227.84 63.9333 227.072 64.616C226.304 65.2987 225.28 65.64 224 65.64ZM253.805 65.64C250.093 65.64 246.786 64.9787 243.885 63.656C241.026 62.2907 238.786 60.3707 237.165 57.896C235.543 55.4213 234.733 52.5627 234.733 49.32C234.733 46.0773 235.543 43.2187 237.165 40.744C238.786 38.2693 241.026 36.3707 243.885 35.048C246.786 33.6827 250.093 33 253.805 33C257.517 33 260.802 33.6827 263.661 35.048C266.562 36.3707 268.823 38.2693 270.445 40.744C272.066 43.2187 272.877 46.0773 272.877 49.32C272.877 52.5627 272.066 55.4213 270.445 57.896C268.823 60.3707 266.562 62.2907 263.661 63.656C260.802 64.9787 257.517 65.64 253.805 65.64ZM253.805 58.984C257.09 58.984 259.671 58.1307 261.549 56.424C263.469 54.7173 264.429 52.3493 264.429 49.32C264.429 46.2907 263.469 43.9227 261.549 42.216C259.671 40.5093 257.09 39.656 253.805 39.656C250.519 39.656 247.917 40.5093 245.997 42.216C244.119 43.9227 243.181 46.2907 243.181 49.32C243.181 52.3493 244.119 54.7173 245.997 56.424C247.917 58.1307 250.519 58.984 253.805 58.984ZM293.995 81C290.88 81 288.043 80.5093 285.483 79.528C282.965 78.5893 281.024 77.2667 279.659 75.56C279.104 74.8347 278.827 74.088 278.827 73.32C278.827 72.296 279.317 71.3573 280.299 70.504C280.939 69.992 281.643 69.736 282.411 69.736C283.563 69.736 284.672 70.312 285.739 71.464C287.573 73.4267 290.261 74.408 293.803 74.408C296.832 74.408 299.115 73.5973 300.651 71.976C302.229 70.3973 303.019 68.072 303.019 65V62.312C301.995 63.2933 300.672 64.104 299.051 64.744C297.429 65.3413 295.893 65.64 294.443 65.64C289.109 65.64 284.949 64.232 281.963 61.416C278.976 58.5573 277.483 54.5893 277.483 49.512V36.584C277.483 35.56 277.888 34.7067 278.699 34.024C279.509 33.3413 280.512 33 281.707 33C282.859 33 283.84 33.3627 284.651 34.088C285.461 34.7707 285.867 35.6027 285.867 36.584V49.512C285.867 52.584 286.613 54.9733 288.107 56.68C289.643 58.3867 291.755 59.24 294.443 59.24C297.045 59.24 299.072 58.3867 300.523 56.68C301.973 54.9733 302.699 52.584 302.699 49.512V37.288C302.699 35.9227 303.061 34.8773 303.787 34.152C304.555 33.384 305.6 33 306.923 33C308.245 33 309.269 33.384 309.995 34.152C310.72 34.8773 311.083 35.9227 311.083 37.288V63.912C311.083 69.288 309.568 73.4693 306.539 76.456C303.552 79.4853 299.371 81 293.995 81Z" fill="#FFC108"/>
<defs>
<filter id="filter0_d_107_16" x="-4" y="8" width="87.5455" height="87.5455" filterUnits="userSpaceOnUse" color-interpolation-filters="sRGB">
<feFlood flood-opacity="0" result="BackgroundImageFix"/>
<feColorMatrix in="SourceAlpha" type="matrix" values="0 0 0 0 0 0 0 0 0 0 0 0 0 0 0 0 0 0 127 0" result="hardAlpha"/>
<feOffset dy="4"/>
<feGaussianBlur stdDeviation="2"/>
<feComposite in2="hardAlpha" operator="out"/>
<feColorMatrix type="matrix" values="0 0 0 0 0 0 0 0 0 0 0 0 0 0 0 0 0 0 0.25 0"/>
<feBlend mode="normal" in2="BackgroundImageFix" result="effect1_dropShadow_107_16"/>
<feBlend mode="normal" in="SourceGraphic" in2="effect1_dropShadow_107_16" result="shape"/>
</filter>
</defs>
</svg>
